<svg width="131" height="49" viewBox="0 0 131 49" fill="none" xmlns="http://www.w3.org/2000/svg">
<path d="M3.23457 1.87812C52.471 0.990279 100.832 0.428586 128.779 3.0015M2.29868 1.79054C28.1841 3.02868 55.0239 3.09814 128.955 2.69348M127.769 2.64516C129.937 11.7772 129.784 21.0572 127.894 47.2333M128.779 1.71806C127.825 17.6025 127.588 32.4753 127.593 46.5086M128.455 46.3123C101.842 47.3783 77.5966 47.2877 1.35352 45.7355M128.923 47.0582C78.1016 46.0254 28.0821 45.9227 2.93342 46.6535M1.54347 47.7195C1.84 30.1198 3.35967 12.5624 3.55889 1.08691M2.88245 46.421C2.30794 31.3157 1.7566 17.3428 3.23921 1.76336" stroke="#004699" stroke-width="1.42067" stroke-linecap="round"/>
</svg>
