<svg width="233" height="91" viewBox="0 0 233 91" fill="none" xmlns="http://www.w3.org/2000/svg">
<path d="M5.36533 3.48545C93.4524 1.81857 179.973 0.764015 229.972 5.59456M3.69095 3.32103C50.0016 5.64559 98.0197 5.77599 230.287 5.01626M228.165 4.92554C232.044 22.0706 231.771 39.4934 228.389 88.638M229.972 3.18496C228.265 33.0074 227.842 60.9304 227.85 87.2773M229.392 86.9088C181.78 88.9102 138.404 88.7401 2 85.8259M230.229 88.3092C139.307 86.3702 49.8192 86.1774 4.82655 87.5495M2.33985 89.5508C2.87034 56.5081 5.58913 23.5447 5.94556 2M4.73537 87.1129C3.70753 58.7533 2.72114 32.5198 5.37362 3.27" stroke="#767676" stroke-width="2.7" stroke-linecap="round"/>
<path d="M13.5406 11.1583C95.148 9.79387 175.304 8.93065 221.625 12.8848L13.5406 11.1583ZM11.9894 11.0237C54.8934 12.9265 99.3792 13.0333 221.917 12.4114L11.9894 11.0237ZM219.951 12.3371C223.545 26.3715 223.292 40.6332 220.158 80.8613L219.951 12.3371ZM221.625 10.9123C220.043 35.3239 219.652 58.1808 219.659 79.7474L221.625 10.9123ZM221.088 79.4458C176.978 81.084 136.793 80.9448 10.4229 78.5593L221.088 79.4458ZM221.863 80.5921C137.63 79.0049 54.7244 78.8471 13.0415 79.9702L221.863 80.5921ZM10.7377 81.6085C11.2292 54.5608 13.748 27.5781 14.0782 9.94238L10.7377 81.6085ZM12.957 79.6128C12.0048 56.3986 11.0909 34.9248 13.5483 10.982L12.957 79.6128Z" fill="#004699"/>
<path d="M13.5406 11.1583C95.148 9.79387 175.304 8.93065 221.625 12.8848M11.9894 11.0237C54.8934 12.9265 99.3792 13.0333 221.917 12.4114M219.951 12.3371C223.545 26.3715 223.292 40.6332 220.158 80.8613M221.625 10.9123C220.043 35.3239 219.652 58.1808 219.659 79.7474M221.088 79.4458C176.978 81.084 136.793 80.9448 10.4229 78.5593M221.863 80.5921C137.63 79.0049 54.7244 78.8471 13.0415 79.9702M10.7377 81.6085C11.2292 54.5608 13.748 27.5781 14.0782 9.94238M12.957 79.6128C12.0048 56.3986 11.0909 34.9248 13.5483 10.982" stroke="#004699" stroke-width="2.7" stroke-linecap="round"/>
<path d="M11.7783 48.5361L13.9331 11.6533L221.256 12.883L219.581 79.4769H137.226H11.7783V48.5361Z" fill="#004699"/>
<path d="M54.486 54.3326C52.3793 54.3326 50.716 53.307 50.1339 51.6992L51.9912 50.729C52.4347 51.7269 53.3218 52.2813 54.486 52.2813C56.1216 52.2813 56.9532 51.3388 56.9532 49.537V37.8665H53.7653V35.9815H59.254V49.4261C59.254 52.5031 57.4799 54.3326 54.486 54.3326ZM67.5254 54.3326C64.7533 54.3326 62.8683 52.6694 62.8683 50.2023C62.8683 47.652 65.086 46.0164 68.5788 45.9887L71.6003 45.961V44.9908C71.6003 43.1335 70.3252 41.9969 68.2461 41.9969C66.8047 41.9969 65.5295 42.5791 64.6702 43.6047L63.3673 42.2464C64.4761 40.7772 66.2502 39.9733 68.4125 39.9733C71.6558 39.9733 73.7348 41.886 73.7348 44.8522V51.3665C73.7348 51.8932 73.9566 52.115 74.4833 52.115H75.01V54H73.9566C72.5428 54 71.7944 53.307 71.7944 51.9487H71.7389C70.8796 53.4733 69.3272 54.3326 67.5254 54.3326ZM67.6363 52.4199C69.9648 52.4199 71.6003 50.9507 71.6003 48.8717V47.7351L68.5788 47.7628C66.3888 47.7906 65.086 48.6776 65.086 50.1468C65.086 51.4774 66.1394 52.4199 67.6363 52.4199ZM79.4665 51.1725C80.4368 51.1725 81.0189 52.0041 81.0189 53.0298C81.0189 54.7207 79.9101 56.2454 78.1082 57.6037L77.3043 56.7166C78.0528 56.0236 78.6626 55.2474 78.9953 54.2218C78.2745 54.0554 77.8587 53.4179 77.8587 52.7248C77.8587 51.8932 78.4686 51.1725 79.4665 51.1725ZM98.011 50.3963C98.011 48.8717 96.625 48.4836 94.9618 47.9292C93.1322 47.3193 91.3026 46.4045 91.3026 43.9651C91.3026 41.6088 93.2154 39.9733 95.932 39.9733C97.8724 39.9733 99.4248 40.8049 100.229 42.2741L98.7041 43.4661C98.0665 42.4127 97.0685 41.8306 95.9597 41.8306C94.4628 41.8306 93.4648 42.6622 93.4648 43.8542C93.4648 45.3789 94.8509 45.7669 96.5141 46.3214C98.3437 46.9312 100.173 47.846 100.173 50.2854C100.173 52.6971 98.2051 54.3326 95.3221 54.3326C93.1876 54.3326 91.6076 53.501 90.8314 52.0318L92.356 50.8398C92.9936 51.8932 94.047 52.4754 95.2944 52.4754C96.9299 52.4754 98.011 51.6437 98.011 50.3963ZM108.456 54.1109C105.989 54.1109 104.659 52.6417 104.659 49.9251V42.1633H102.219V40.306H103.383C104.409 40.306 104.964 39.7515 104.964 38.7259V36.7577H106.821V40.306H110.23V42.1633H106.821V49.8142C106.821 51.422 107.486 52.1982 108.817 52.1982C109.233 52.1982 109.676 52.1704 109.898 52.115V53.9723C109.51 54.0554 108.928 54.1109 108.456 54.1109ZM116.768 54.3326C113.996 54.3326 112.11 52.6694 112.11 50.2023C112.11 47.652 114.328 46.0164 117.821 45.9887L120.843 45.961V44.9908C120.843 43.1335 119.567 41.9969 117.488 41.9969C116.047 41.9969 114.772 42.5791 113.912 43.6047L112.609 42.2464C113.718 40.7772 115.492 39.9733 117.655 39.9733C120.898 39.9733 122.977 41.886 122.977 44.8522V51.3665C122.977 51.8932 123.199 52.115 123.725 52.115H124.252V54H123.199C121.785 54 121.037 53.307 121.037 51.9487H120.981C120.122 53.4733 118.569 54.3326 116.768 54.3326ZM116.878 52.4199C119.207 52.4199 120.843 50.9507 120.843 48.8717V47.7351L117.821 47.7628C115.631 47.7906 114.328 48.6776 114.328 50.1468C114.328 51.4774 115.382 52.4199 116.878 52.4199ZM127.6 54V40.306H129.679V42.4959H129.734C130.372 41.0544 131.592 40.1951 133.116 40.1951C133.504 40.1951 133.948 40.2228 134.225 40.2782V42.4127C133.837 42.3296 133.394 42.2741 132.756 42.2741C130.954 42.2741 129.762 43.7988 129.762 46.1828V54H127.6ZM141.916 54.1109C139.449 54.1109 138.118 52.6417 138.118 49.9251V42.1633H135.679V40.306H136.843C137.869 40.306 138.423 39.7515 138.423 38.7259V36.7577H140.281V40.306H143.69V42.1633H140.281V49.8142C140.281 51.422 140.946 52.1982 142.276 52.1982C142.692 52.1982 143.136 52.1704 143.358 52.115V53.9723C142.97 54.0554 142.387 54.1109 141.916 54.1109Z" fill="white"/>
<path d="M172.393 39.974L173.866 38.4976L180.855 45.4998L173.866 52.5019L172.393 51.0255L176.866 46.5438H161.146V44.4558L176.866 44.4558L172.393 39.974Z" fill="white"/>
</svg>
