<svg width="452" height="180" viewBox="0 0 452 180" fill="none" xmlns="http://www.w3.org/2000/svg">
<path d="M8.5837 4.98762C180.911 1.6351 350.174 -0.48588 447.989 9.22958M5.30807 4.65693C95.907 9.3322 189.846 9.59447 448.605 8.06646M444.454 7.88401C452.043 42.367 451.508 77.4088 444.892 176.251M447.989 4.38325C444.649 64.3636 443.822 120.524 443.838 173.514M446.854 172.773C353.709 176.798 268.851 176.456 2 170.595M448.492 175.59C270.618 171.69 95.5502 171.302 7.52966 174.062M2.66486 178.087C3.70268 111.63 9.02154 45.3318 9.71883 2M7.35129 173.184C5.3405 116.145 3.41079 63.383 8.59992 4.5543" stroke="#004699" stroke-width="2.7" stroke-linecap="round"/>
</svg>
