<svg width="25" height="26" viewBox="0 0 25 26" fill="none" xmlns="http://www.w3.org/2000/svg">
<path d="M17.8617 8.68841H10.717V10.7335H17.8617V8.68841Z" fill="#181818"/>
<path d="M10.717 12.482H17.8617V14.527H10.717V12.482Z" fill="#181818"/>
<path d="M10.717 16.2755H15.8816V18.3206H10.717V16.2755Z" fill="#181818"/>
<path fill-rule="evenodd" clip-rule="evenodd" d="M17.9842 1.69434L18.2597 5.34475H21.434V18.6989L19.1375 24.149H7.14468V22.2573L4.54198 22.4516L3.06201 2.81911L17.9842 1.69434ZM6.42 20.2532L7.14468 20.2021V5.34475H16.2184L16.1061 3.88254L5.25644 4.71079L6.42 20.2532ZM9.18601 7.3898V22.104H17.382L16.9023 21.5109L16.2388 20.7031L19.2396 18.2899L19.3927 18.1672V7.3898H9.18601Z" fill="#181818"/>
</svg>
