<svg width="75" height="78" viewBox="0 0 75 78" fill="none" xmlns="http://www.w3.org/2000/svg">
<path d="M32.147 3.77135C34.6148 6.42519 43.3891 15.885 45.6121 18.7837M29.3169 1C31.4615 4.06514 41.029 17.207 43.4087 21.0752" stroke="#EC0000" stroke-width="1.95855" stroke-linecap="round"/>
<path d="M31.2862 17.9715C33.7442 15.3765 44.6926 6.5238 47.1016 4.10498M27.8979 22.7504C29.8859 20.6939 42.2737 10.4409 44.8199 7.67934" stroke="#EC0000" stroke-width="1.95855" stroke-linecap="round"/>
<path d="M32.147 30.7079C34.6148 33.3617 43.3891 42.8215 45.6121 45.7202M29.3169 27.9365C31.4615 31.0017 41.029 44.1436 43.4087 48.0117" stroke="#EC0000" stroke-width="1.95855" stroke-linecap="round"/>
<path d="M31.2862 44.9081C33.7442 42.313 44.6926 33.4603 47.1016 31.0415M27.8979 49.6869C29.8859 47.6305 42.2737 37.3774 44.8199 34.6159" stroke="#EC0000" stroke-width="1.95855" stroke-linecap="round"/>
<path d="M32.147 57.6444C34.6148 60.2982 43.3891 69.7581 45.6121 72.6567M29.3169 54.873C31.4615 57.9382 41.029 71.0801 43.4087 74.9482" stroke="#EC0000" stroke-width="1.95855" stroke-linecap="round"/>
<path d="M31.2862 71.8446C33.7442 69.2495 44.6926 60.3968 47.1016 57.978M27.8979 76.6235C29.8859 74.567 42.2737 64.314 44.8199 61.5524" stroke="#EC0000" stroke-width="1.95855" stroke-linecap="round"/>
</svg>
