<svg width="90" height="90" viewBox="0 0 90 90" fill="none" xmlns="http://www.w3.org/2000/svg">
<path d="M24.054 7.8727C29.402 4.2543 37.8703 2.26868 44.5813 2.14415C51.2922 2.01962 58.446 4.09518 64.3268 7.13241C70.2075 10.1697 75.9015 15.0334 79.852 20.3607C83.7955 25.6879 87.1994 32.4335 88.0158 39.096C88.8322 45.7586 87.0196 54.0193 84.7572 60.3429C82.4948 66.6733 79.3607 72.6509 74.4417 77.0581C69.5226 81.4582 61.9122 84.9936 55.2427 86.7717C48.5733 88.5428 40.7968 89.3039 34.4249 87.6988C28.0598 86.1006 21.8608 81.6796 17.0455 77.1549C12.2302 72.6233 8.00297 66.6457 5.52613 60.5297C3.04238 54.4137 1.54797 47.0939 2.17064 40.4728C2.79331 33.8449 4.95881 26.5943 9.2483 20.7965C13.5309 14.9988 23.8603 8.4331 27.8868 5.67952C31.9134 2.92595 32.9927 3.59704 33.4217 4.2889M48.3173 2.00578C54.9798 1.84665 63.545 4.99459 69.1075 8.77211C74.67 12.5496 78.5444 18.7486 81.6992 24.6778C84.8541 30.6001 87.7806 37.7262 88.0435 44.3265C88.2995 50.9267 86.0095 58.5233 83.249 64.2934C80.4885 70.0634 76.6556 75.2108 71.4805 78.9468C66.3055 82.6828 58.958 85.5817 52.1986 86.7094C45.4461 87.8371 37.4621 87.6296 30.9448 85.7201C24.4345 83.8175 17.6197 80.1022 13.1158 75.2731C8.61872 70.4439 5.73369 63.2694 3.94179 56.7591C2.14988 50.2487 1.036 42.6453 2.3782 36.2249C3.72039 29.7975 7.82308 23.2941 11.995 18.2228C16.1738 13.1515 21.3765 8.39851 27.4302 5.7833C33.4909 3.17501 44.7127 2.96746 48.3588 2.54543C52.0049 2.13031 49.4104 2.67688 49.3274 3.27187" fill="white"/>
<path d="M24.054 7.8727C29.402 4.2543 37.8703 2.26868 44.5813 2.14415C51.2922 2.01962 58.446 4.09518 64.3268 7.13242C70.2075 10.1697 75.9015 15.0334 79.852 20.3607C83.7955 25.6879 87.1994 32.4335 88.0158 39.096C88.8322 45.7586 87.0196 54.0193 84.7572 60.3429C82.4948 66.6733 79.3607 72.6509 74.4417 77.0581C69.5226 81.4582 61.9122 84.9936 55.2427 86.7717C48.5733 88.5428 40.7968 89.3039 34.4249 87.6988C28.0598 86.1006 21.8608 81.6796 17.0455 77.1549C12.2302 72.6233 8.00297 66.6457 5.52613 60.5297C3.04238 54.4137 1.54797 47.0939 2.17064 40.4728C2.79331 33.8449 4.95881 26.5943 9.2483 20.7965C13.5309 14.9988 23.8602 8.4331 27.8868 5.67952C31.9134 2.92595 32.9927 3.59704 33.4217 4.2889M48.3173 2.00578C54.9798 1.84665 63.545 4.99459 69.1075 8.77211C74.67 12.5496 78.5444 18.7486 81.6992 24.6778C84.8541 30.6001 87.7806 37.7262 88.0435 44.3265C88.2995 50.9267 86.0095 58.5233 83.249 64.2934C80.4885 70.0634 76.6556 75.2108 71.4805 78.9468C66.3055 82.6828 58.958 85.5817 52.1986 86.7094C45.4461 87.8371 37.4621 87.6296 30.9448 85.7201C24.4345 83.8175 17.6197 80.1022 13.1158 75.2731C8.61872 70.4439 5.73369 63.2694 3.94179 56.7591C2.14988 50.2487 1.036 42.6453 2.3782 36.2249C3.72039 29.7975 7.82308 23.2941 11.995 18.2228C16.1738 13.1515 21.3765 8.39851 27.4302 5.7833C33.4909 3.17501 44.7127 2.96746 48.3588 2.54543C52.0049 2.13031 49.4104 2.67688 49.3274 3.27187" stroke="#767676" stroke-width="2.76741" stroke-linecap="round"/>
<rect x="26.1929" y="26.4819" width="37.6143" height="37.6143" rx="4" fill="#EC0000"/>
</svg>
