<svg width="90" height="90" viewBox="0 0 90 90" fill="none" xmlns="http://www.w3.org/2000/svg">
<path d="M24.0538 7.8727C29.4019 4.2543 37.8702 2.26868 44.5811 2.14415C51.2921 2.01962 58.4459 4.09518 64.3266 7.13241C70.2074 10.1697 75.9014 15.0334 79.8518 20.3607C83.7954 25.6879 87.1993 32.4335 88.0157 39.096C88.8321 45.7586 87.0194 54.0193 84.7571 60.3429C82.4947 66.6733 79.3606 72.6509 74.4415 77.0581C69.5225 81.4582 61.9121 84.9936 55.2426 86.7717C48.5731 88.5428 40.7967 89.3039 34.4247 87.6988C28.0597 86.1006 21.8607 81.6796 17.0454 77.1549C12.2301 72.6233 8.00284 66.6457 5.52601 60.5297C3.04225 54.4137 1.54785 47.0939 2.17052 40.4728C2.79319 33.8449 4.95869 26.5943 9.24818 20.7965C13.5308 14.9988 23.8601 8.4331 27.8867 5.67952C31.9133 2.92595 32.9926 3.59704 33.4215 4.2889M48.3172 2.00578C54.9797 1.84665 63.5448 4.99459 69.1074 8.77211C74.6699 12.5496 78.5442 18.7486 81.6991 24.6778C84.8539 30.6001 87.7805 37.7262 88.0434 44.3265C88.2994 50.9267 86.0093 58.5233 83.2488 64.2934C80.4883 70.0634 76.6555 75.2108 71.4804 78.9468C66.3053 82.6828 58.9579 85.5817 52.1985 86.7094C45.446 87.8371 37.462 87.6296 30.9447 85.7201C24.4344 83.8175 17.6196 80.1022 13.1156 75.2731C8.61859 70.4439 5.73356 63.2694 3.94166 56.7591C2.14976 50.2487 1.03588 42.6453 2.37807 36.2249C3.72027 29.7975 7.82296 23.2941 11.9948 18.2228C16.1736 13.1515 21.3764 8.39851 27.4301 5.7833C33.4907 3.17501 44.7126 2.96746 48.3587 2.54543C52.0047 2.13031 49.4103 2.67688 49.3273 3.27187" fill="white"/>
<path d="M24.0538 7.8727C29.4019 4.2543 37.8702 2.26868 44.5811 2.14415C51.2921 2.01962 58.4459 4.09518 64.3266 7.13241C70.2074 10.1697 75.9014 15.0334 79.8518 20.3607C83.7954 25.6879 87.1993 32.4335 88.0157 39.096C88.8321 45.7586 87.0194 54.0193 84.7571 60.3429C82.4947 66.6733 79.3606 72.6509 74.4415 77.0581C69.5225 81.4582 61.9121 84.9936 55.2426 86.7717C48.5731 88.5428 40.7967 89.3039 34.4247 87.6988C28.0597 86.1006 21.8607 81.6796 17.0454 77.1549C12.2301 72.6233 8.00284 66.6457 5.52601 60.5297C3.04225 54.4137 1.54785 47.0939 2.17052 40.4728C2.79319 33.8449 4.95869 26.5943 9.24818 20.7965C13.5308 14.9988 23.8601 8.4331 27.8867 5.67952C31.9133 2.92595 32.9926 3.59704 33.4215 4.2889M48.3172 2.00578C54.9797 1.84665 63.5449 4.99459 69.1074 8.77211C74.6699 12.5496 78.5442 18.7486 81.6991 24.6778C84.8539 30.6001 87.7805 37.7262 88.0434 44.3265C88.2994 50.9267 86.0093 58.5233 83.2488 64.2934C80.4883 70.0634 76.6555 75.2108 71.4804 78.9468C66.3053 82.6828 58.9579 85.5817 52.1985 86.7094C45.446 87.8371 37.462 87.6296 30.9447 85.7201C24.4344 83.8175 17.6196 80.1022 13.1156 75.2731C8.61859 70.4439 5.73356 63.2694 3.94166 56.7591C2.14976 50.2487 1.03588 42.6453 2.37807 36.2249C3.72027 29.7975 7.82296 23.2941 11.9948 18.2228C16.1736 13.1515 21.3764 8.39851 27.4301 5.7833C33.4907 3.17501 44.7126 2.96746 48.3587 2.54543C52.0047 2.13031 49.4103 2.67688 49.3273 3.27187" stroke="#767676" stroke-width="2.76741" stroke-linecap="round"/>
<path d="M27.5785 14.1686C32.0266 11.1591 39.0699 9.50765 44.6516 9.40407C50.2332 9.3005 56.1832 11.0268 61.0744 13.5529C65.9655 16.0791 70.7013 20.1244 73.987 24.5552C77.267 28.986 80.0981 34.5965 80.7771 40.1379C81.4561 45.6793 79.9485 52.5499 78.0668 57.8094C76.1852 63.0746 73.5785 68.0463 69.4872 71.7118C65.3958 75.3715 59.0661 78.312 53.5189 79.7908C47.9718 81.2639 41.5039 81.8969 36.2042 80.5619C30.9102 79.2327 25.7544 75.5557 21.7494 71.7923C17.7444 68.0233 14.2285 63.0515 12.1684 57.9647C10.1026 52.8779 8.85971 46.7899 9.3776 41.283C9.89549 35.7703 11.6966 29.7398 15.2643 24.9177C18.8262 20.0956 27.4174 14.6347 30.7664 12.3445C34.1154 10.0543 35.0131 10.6125 35.3698 11.1879M47.7589 9.28899C53.3003 9.15664 60.4241 11.7749 65.0506 14.9167C69.6771 18.0586 72.8995 23.2144 75.5234 28.1459C78.1474 33.0716 80.5815 38.9985 80.8001 44.4881C81.0131 49.9777 79.1084 56.296 76.8124 61.0951C74.5164 65.8942 71.3285 70.1754 67.0243 73.2827C62.7201 76.39 56.609 78.8011 50.987 79.7391C45.3708 80.677 38.7304 80.5044 33.3098 78.9162C27.895 77.3337 22.227 74.2437 18.4809 70.2272C14.7406 66.2107 12.3411 60.2434 10.8507 54.8286C9.36034 49.4138 8.43389 43.0898 9.55023 37.7498C10.6666 32.4041 14.0789 26.995 17.5487 22.7771C21.0243 18.5592 25.3516 14.606 30.3866 12.4308C35.4274 10.2615 44.7609 10.0888 47.7934 9.73782C50.8259 9.39256 48.6681 9.84716 48.599 10.342" fill="#EC0000"/>
<path d="M27.5785 14.1686C32.0266 11.1591 39.0699 9.50765 44.6515 9.40407C50.2332 9.3005 56.1832 11.0268 61.0744 13.5529C65.9655 16.0791 70.7013 20.1244 73.987 24.5552C77.267 28.986 80.0981 34.5965 80.7771 40.1379C81.4561 45.6793 79.9485 52.5499 78.0669 57.8094C76.1852 63.0746 73.5785 68.0463 69.4872 71.7118C65.3958 75.3715 59.0661 78.312 53.5189 79.7908C47.9718 81.2639 41.5039 81.8969 36.2042 80.5619C30.9102 79.2327 25.7544 75.5557 21.7494 71.7923C17.7444 68.0233 14.2285 63.0515 12.1684 57.9647C10.1026 52.8779 8.85971 46.7899 9.3776 41.283C9.89549 35.7703 11.6966 29.7398 15.2643 24.9177C18.8262 20.0956 27.4174 14.6347 30.7664 12.3445C34.1154 10.0543 35.0131 10.6125 35.3698 11.1879M47.7589 9.28899C53.3003 9.15664 60.4241 11.7749 65.0506 14.9167C69.6771 18.0586 72.8995 23.2144 75.5234 28.1459C78.1474 33.0716 80.5815 38.9985 80.8001 44.4881C81.0131 49.9777 79.1084 56.296 76.8124 61.0951C74.5164 65.8942 71.3285 70.1754 67.0243 73.2827C62.7201 76.39 56.609 78.8011 50.987 79.7391C45.3708 80.677 38.7304 80.5044 33.3098 78.9162C27.895 77.3338 22.227 74.2437 18.4809 70.2272C14.7406 66.2107 12.3411 60.2434 10.8507 54.8286C9.36034 49.4138 8.43389 43.0898 9.55023 37.7498C10.6666 32.4041 14.0789 26.995 17.5487 22.7771C21.0243 18.5592 25.3516 14.606 30.3866 12.4308C35.4274 10.2615 44.7609 10.0888 47.7934 9.73782C50.8259 9.39256 48.6681 9.84716 48.599 10.342" stroke="#EC0000" stroke-width="2.30173" stroke-linecap="round"/>
<path d="M45 49.5596C43.5765 49.5596 42.3664 49.0613 41.37 48.0648C40.3735 47.0684 39.8752 45.8583 39.8752 44.4348V34.1853C39.8752 32.7618 40.3735 31.5517 41.37 30.5553C42.3664 29.5588 43.5765 29.0605 45 29.0605C46.4235 29.0605 47.6335 29.5588 48.63 30.5553C49.6265 31.5517 50.1247 32.7618 50.1247 34.1853V44.4348C50.1247 45.8583 49.6265 47.0684 48.63 48.0648C47.6335 49.0613 46.4235 49.5596 45 49.5596ZM43.2917 61.5173V56.2644C40.3308 55.8659 37.8823 54.542 35.9463 52.2928C34.0102 50.0436 33.0422 47.4242 33.0422 44.4348H36.4587C36.4587 46.7979 37.2915 48.8122 38.9571 50.4777C40.6226 52.1433 42.6369 52.9761 45 52.9761C47.3631 52.9761 49.3774 52.1433 51.0429 50.4777C52.7085 48.8122 53.5413 46.7979 53.5413 44.4348H56.9578C56.9578 47.4242 55.9897 50.0436 54.0537 52.2928C52.1177 54.542 49.6692 55.8659 46.7082 56.2644V61.5173H43.2917ZM45 46.1431C45.484 46.1431 45.8897 45.9794 46.2171 45.6519C46.5445 45.3245 46.7082 44.9188 46.7082 44.4348V34.1853C46.7082 33.7013 46.5445 33.2956 46.2171 32.9682C45.8897 32.6408 45.484 32.477 45 32.477C44.516 32.477 44.1103 32.6408 43.7829 32.9682C43.4555 33.2956 43.2917 33.7013 43.2917 34.1853V44.4348C43.2917 44.9188 43.4555 45.3245 43.7829 45.6519C44.1103 45.9794 44.516 46.1431 45 46.1431Z" fill="white"/>
</svg>
