<svg width="25" height="31" viewBox="0 0 25 31" fill="none" xmlns="http://www.w3.org/2000/svg">
<path fill-rule="evenodd" clip-rule="evenodd" d="M16.4584 11.7693H17.8618C19.5529 11.7693 20.9238 13.1402 20.9238 14.8313V15.3416H21.9444V22.9966H20.9238V23.5069C20.9238 25.198 19.5529 26.5689 17.8618 26.5689H2.55176V11.7693H5.99645C5.74937 11.1366 5.61376 10.4481 5.61376 9.72792C5.61376 6.62758 8.12708 4.11426 11.2274 4.11426C14.3278 4.11426 16.8411 6.62758 16.8411 9.72792C16.8411 10.4481 16.7055 11.1366 16.4584 11.7693ZM14.1594 11.7693C14.5631 11.1906 14.7998 10.4869 14.7998 9.72792C14.7998 7.75498 13.2004 6.15559 11.2274 6.15559C9.25448 6.15559 7.65509 7.75498 7.65509 9.72792C7.65509 10.4869 7.89179 11.1906 8.2954 11.7693H10.0459C9.52209 11.4163 9.14054 10.8605 8.97459 10.2265H8.63651V8.79755H8.97459C9.25896 7.71114 10.1764 6.85436 11.3581 6.85436C12.0073 6.85436 12.5898 7.12241 13.0214 7.54279L12.0244 8.56645C11.8352 8.38214 11.6021 8.28329 11.3581 8.28329C11.0364 8.28329 10.707 8.47259 10.5058 8.79755H11.9984V10.2265H10.5058C10.707 10.5514 11.0364 10.7407 11.3581 10.7407C11.6021 10.7407 11.8352 10.6419 12.0244 10.4576L13.0214 11.4812C12.9122 11.5876 12.7933 11.6843 12.6661 11.7693H14.1594ZM18.8824 14.8313V15.3416H16.0756C13.9617 15.3416 12.2481 17.0552 12.2481 19.1691C12.2481 21.283 13.9617 22.9966 16.0756 22.9966H18.8824V23.5069C18.8824 24.0706 18.4255 24.5276 17.8618 24.5276H4.59309V13.8106H17.8618C18.4255 13.8106 18.8824 14.2676 18.8824 14.8313ZM19.9031 17.3829H16.0756C15.0891 17.3829 14.2894 18.1826 14.2894 19.1691C14.2894 20.1556 15.0891 20.9553 16.0756 20.9553H19.9031V17.3829ZM16.3308 20.1898C16.8945 20.1898 17.3514 19.7328 17.3514 19.1691C17.3514 18.6054 16.8945 18.1484 16.3308 18.1484C15.7671 18.1484 15.3101 18.6054 15.3101 19.1691C15.3101 19.7328 15.7671 20.1898 16.3308 20.1898Z" fill="#004699"/>
</svg>
